HIERARCHY
ROOT Hips
{
    OFFSET   0.000000   0.000000   0.000000
    CHANNELS 6 Xposition Yposition Zposition Zrotation Xrotation Yrotation
    JOINT Chest
    {
        OFFSET   0.000000   8.007230   0.000000
        CHANNELS 3 Zrotation Xrotation Yrotation
        JOINT Chest2
        {
            OFFSET   0.000000  22.077100   0.000000
            CHANNELS 3 Zrotation Xrotation Yrotation
            JOINT Neck
            {
                OFFSET   0.000000  23.255100   0.000000
                CHANNELS 3 Zrotation Xrotation Yrotation
                JOINT Head
                {
                    OFFSET   0.000000  14.370100   1.956600
                    CHANNELS 3 Zrotation Xrotation Yrotation
                    End Site
                    {
                        OFFSET   0.000000  19.566000   0.000000
                    }
                }
            }
            JOINT LeftCollar
            {
                OFFSET   3.911900  19.017000  -0.467063
                CHANNELS 3 Zrotation Xrotation Yrotation
                JOINT LeftShoulder
                {
                    OFFSET  10.383700   0.000000   0.000000
                    CHANNELS 3 Zrotation Xrotation Yrotation
                    JOINT LeftElbow
                    {
                        OFFSET  26.662100   0.001193   0.000980
                        CHANNELS 3 Zrotation Xrotation Yrotation
                        JOINT LeftWrist
                        {
                            OFFSET  28.869000  -0.000059  -0.000082
                            CHANNELS 3 Zrotation Xrotation Yrotation
                            JOINT LeftFinger0
                            {
                                OFFSET   2.044650  -2.323450   3.252850
                                CHANNELS 3 Zrotation Xrotation Yrotation
                                JOINT LeftFinger01
                                {
                                    OFFSET   3.088130   0.000000   0.000000
                                    CHANNELS 3 Zrotation Xrotation Yrotation
                                    JOINT LeftFinger02
                                    {
                                        OFFSET   2.639460   0.000000   0.000000
                                        CHANNELS 3 Zrotation Xrotation Yrotation
                                        End Site
                                        {
                                            OFFSET   2.582190   0.000000   0.000000
                                        }
                                    }
                                }
                            }
                            JOINT LeftFinger1
                            {
                                OFFSET   8.364480   0.000000   3.252850
                                CHANNELS 3 Zrotation Xrotation Yrotation
                                JOINT LeftFinger11
                                {
                                    OFFSET   4.646930   0.000000   0.000000
                                    CHANNELS 3 Zrotation Xrotation Yrotation
                                    JOINT LeftFinger12
                                    {
                                        OFFSET   2.323470   0.000000   0.000000
                                        CHANNELS 3 Zrotation Xrotation Yrotation
                                        End Site
                                        {
                                            OFFSET   2.273050   0.000000   0.000000
                                        }
                                    }
                                }
                            }
                            JOINT LeftFinger2
                            {
                                OFFSET   8.364490   0.000016   1.078090
                                CHANNELS 3 Zrotation Xrotation Yrotation
                                JOINT LeftFinger21
                                {
                                    OFFSET   5.111610   0.000000   0.000000
                                    CHANNELS 3 Zrotation Xrotation Yrotation
                                    JOINT LeftFinger22
                                    {
                                        OFFSET   2.788150   0.000016   0.000000
                                        CHANNELS 3 Zrotation Xrotation Yrotation
                                        End Site
                                        {
                                            OFFSET   2.727660   0.000000   0.000000
                                        }
                                    }
                                }
                            }
                            JOINT LeftFinger3
                            {
                                OFFSET   7.899780   0.000015  -1.078090
                                CHANNELS 3 Zrotation Xrotation Yrotation
                                JOINT LeftFinger31
                                {
                                    OFFSET   4.646930   0.000000   0.000000
                                    CHANNELS 3 Zrotation Xrotation Yrotation
                                    JOINT LeftFinger32
                                    {
                                        OFFSET   2.323470   0.000000   0.000000
                                        CHANNELS 3 Zrotation Xrotation Yrotation
                                        End Site
                                        {
                                            OFFSET   2.273050   0.000000   0.000000
                                        }
                                    }
                                }
                            }
                            JOINT LeftFinger4
                            {
                                OFFSET   7.435090   0.000000  -3.252850
                                CHANNELS 3 Zrotation Xrotation Yrotation
                                JOINT LeftFinger41
                                {
                                    OFFSET   3.717550   0.000000   0.000000
                                    CHANNELS 3 Zrotation Xrotation Yrotation
                                    JOINT LeftFinger42
                                    {
                                        OFFSET   1.858770   0.000000   0.000000
                                        CHANNELS 3 Zrotation Xrotation Yrotation
                                        End Site
                                        {
                                            OFFSET   1.818440   0.000000   0.000000
                                        }
                                    }
                                }
                            }
                        }
                    }
                }
            }
            JOINT RightCollar
            {
                OFFSET  -3.911910  19.017000  -0.467062
                CHANNELS 3 Zrotation Xrotation Yrotation
                JOINT RightShoulder
                {
                    OFFSET -10.383700   0.000014   0.000000
                    CHANNELS 3 Zrotation Xrotation Yrotation
                    JOINT RightElbow
                    {
                        OFFSET -26.662100   0.001225   0.001091
                        CHANNELS 3 Zrotation Xrotation Yrotation
                        JOINT RightWrist
                        {
                            OFFSET -28.869000  -0.000020  -0.000085
                            CHANNELS 3 Zrotation Xrotation Yrotation
                            JOINT RightFinger0
                            {
                                OFFSET  -2.044650  -2.323490   3.252850
                                CHANNELS 3 Zrotation Xrotation Yrotation
                                JOINT RightFinger01
                                {
                                    OFFSET  -3.088130   0.000000   0.000000
                                    CHANNELS 3 Zrotation Xrotation Yrotation
                                    JOINT RightFinger02
                                    {
                                        OFFSET  -2.639460   0.000000   0.000000
                                        CHANNELS 3 Zrotation Xrotation Yrotation
                                        End Site
                                        {
                                            OFFSET  -2.582190   0.000000   0.000000
                                        }
                                    }
                                }
                            }
                            JOINT RightFinger1
                            {
                                OFFSET  -8.364480   0.000000   3.252850
                                CHANNELS 3 Zrotation Xrotation Yrotation
                                JOINT RightFinger11
                                {
                                    OFFSET  -4.646930   0.000000   0.000000
                                    CHANNELS 3 Zrotation Xrotation Yrotation
                                    JOINT RightFinger12
                                    {
                                        OFFSET  -2.323470   0.000000   0.000000
                                        CHANNELS 3 Zrotation Xrotation Yrotation
                                        End Site
                                        {
                                            OFFSET  -2.273050   0.000000   0.000000
                                        }
                                    }
                                }
                            }
                            JOINT RightFinger2
                            {
                                OFFSET  -8.364480   0.000000   1.078090
                                CHANNELS 3 Zrotation Xrotation Yrotation
                                JOINT RightFinger21
                                {
                                    OFFSET  -5.111620   0.000000   0.000000
                                    CHANNELS 3 Zrotation Xrotation Yrotation
                                    JOINT RightFinger22
                                    {
                                        OFFSET  -2.788160   0.000000   0.000000
                                        CHANNELS 3 Zrotation Xrotation Yrotation
                                        End Site
                                        {
                                            OFFSET  -2.727660   0.000000   0.000000
                                        }
                                    }
                                }
                            }
                            JOINT RightFinger3
                            {
                                OFFSET  -7.899780   0.000000  -1.078090
                                CHANNELS 3 Zrotation Xrotation Yrotation
                                JOINT RightFinger31
                                {
                                    OFFSET  -4.646930   0.000000   0.000000
                                    CHANNELS 3 Zrotation Xrotation Yrotation
                                    JOINT RightFinger32
                                    {
                                        OFFSET  -2.323470   0.000000   0.000000
                                        CHANNELS 3 Zrotation Xrotation Yrotation
                                        End Site
                                        {
                                            OFFSET  -2.273050   0.000000   0.000000
                                        }
                                    }
                                }
                            }
                            JOINT RightFinger4
                            {
                                OFFSET  -7.435090   0.000000  -3.252850
                                CHANNELS 3 Zrotation Xrotation Yrotation
                                JOINT RightFinger41
                                {
                                    OFFSET  -3.717550   0.000000   0.000000
                                    CHANNELS 3 Zrotation Xrotation Yrotation
                                    JOINT RightFinger42
                                    {
                                        OFFSET  -1.858760   0.000000   0.000000
                                        CHANNELS 3 Zrotation Xrotation Yrotation
                                        End Site
                                        {
                                            OFFSET  -1.818440   0.000000   0.000000
                                        }
                                    }
                                }
                            }
                        }
                    }
                }
            }
        }
    }
    JOINT LeftHip
    {
        OFFSET   9.783030   0.000000   0.000000
        CHANNELS 3 Zrotation Xrotation Yrotation
        JOINT LeftKnee
        {
            OFFSET   0.000063 -41.789100   0.000608
            CHANNELS 3 Zrotation Xrotation Yrotation
            JOINT LeftAnkle
            {
                OFFSET   0.000048 -41.133200  -0.000184
                CHANNELS 3 Zrotation Xrotation Yrotation
                JOINT LeftToe
                {
                    OFFSET   0.000000  -6.358960  14.674500
                    CHANNELS 3 Zrotation Xrotation Yrotation
                    End Site
                    {
                        OFFSET   0.000000   0.000000   3.913200
                    }
                }
            }
        }
    }
    JOINT RightHip
    {
        OFFSET  -9.783030   0.000000   0.000000
        CHANNELS 3 Zrotation Xrotation Yrotation
        JOINT RightKnee
        {
            OFFSET   0.000071 -41.789100   0.001239
            CHANNELS 3 Zrotation Xrotation Yrotation
            JOINT RightAnkle
            {
                OFFSET   0.000037 -41.133200  -0.000166
                CHANNELS 3 Zrotation Xrotation Yrotation
                JOINT RightToe
                {
                    OFFSET   0.000000  -6.358960  14.674500
                    CHANNELS 3 Zrotation Xrotation Yrotation
                    End Site
                    {
                        OFFSET   0.000000   0.000000   3.913200
                    }
                }
            }
        }
    }
}
MOTION
Frames: 4
Frame Time:   0.016667
 -4.810440  89.367600  -1.794730  -2.441740 -20.499600   1.646740   1.770700  12.172500   1.708750   3.274660  24.388500   3.131880   5.537460   1.674430  -0.161631   9.118610   3.297200   2.468260  -2.329930  -9.623430  -5.620720 -20.249200  23.387900 -83.305700  37.411300 -17.519700 -92.427300  -0.199481  25.946000   6.167750  37.059500  31.102100 -49.993700 -35.540600  -0.019368  -0.011907 -12.994300  -0.002598  -0.006793  -8.722130   0.712740  -4.395890  -7.182620   0.089845   0.031871  -5.027820   0.060341   0.028478 -12.074500   0.981151  -4.343090 -12.141300   0.109185   0.059109  -8.086130   0.065660   0.050284 -11.158200   0.619792  -3.122210 -11.198900   0.056766   0.028406  -7.458470   0.034783   0.024063 -11.535800   0.782779  -3.080730 -17.377200   0.246292   0.171846 -11.573100   0.131353   0.150928   2.918340  -8.230660   9.379650  15.791500  11.516300  76.590800 -36.877700 -25.107200  67.837700  -1.605570  -1.825330  27.377200 -49.211200  30.980600  59.850500  14.507000   0.076874  -0.054796   2.253480   0.036775  -0.029573   9.778620   1.577360   8.791340   8.139660   0.054723  -0.035193   5.697750   0.035526  -0.028487  10.580200   1.914730   9.213750  10.817100   0.145538  -0.103616   7.204180   0.085735  -0.082529   6.590680   0.572896   4.475030   6.657470   0.081889  -0.042565   4.433880   0.051982  -0.032796  15.143800  -0.648885  -2.540620  22.797700   0.075114  -0.093222  15.183200   0.031457  -0.073227   4.658640  22.184100   0.602612   2.902570   1.549750  -1.127180  -4.412600  -3.969040  -1.085530  -0.000000   0.000000   0.000000   6.788580  21.999000  -8.397300   0.122690   3.395320  -9.172910  -1.462370  -6.517960   1.869390   0.000000   0.000000   0.000000
 -4.784770  89.359500  -1.825650  -2.379400 -20.532900   1.788950   1.746320  12.166900   1.806950   3.194710  24.375300   3.341060   5.199430   1.655590  -0.150294   8.561310   3.272270   2.929250  -2.605180  -9.289670  -5.669740 -21.827900  24.247100 -81.093600  37.220700 -16.592500 -91.789800  -0.127546  25.449100   7.250380  38.059100  32.645700 -48.609600 -35.325800  -0.015438  -0.007650 -12.925900  -0.002585  -0.008960  -9.225990   0.581100  -3.684200  -7.576720   0.079482   0.026793  -5.303690   0.053480   0.024203 -12.680600   0.808021  -3.640980 -12.719300   0.093991   0.048787  -8.471080   0.056718   0.041939 -12.067700   0.431396  -2.159940 -12.086000   0.036332   0.019134  -8.049300   0.022132   0.016086 -12.331500   0.575421  -2.129480 -18.534100   0.207141   0.141089 -12.343700   0.110781   0.124889   2.328640  -7.624490   8.662410  16.473500  12.024900  75.961800 -36.795300 -24.242400  66.252900  -2.075530  -3.133830  24.917000 -48.263100  30.926200  58.545400  16.041700   0.074255  -0.053017   3.020820   0.035313  -0.028969  10.755900   1.419620   7.149040   8.907930   0.048447  -0.028070   6.235540   0.031542  -0.023315  11.521500   1.697380   7.816430  11.710100   0.139621  -0.096075   7.798930   0.082321  -0.077274   7.712110   0.421065   2.776580   7.756540   0.067952  -0.032169   5.165860   0.043137  -0.025498  15.952100  -1.185170  -4.276840  24.035300   0.074245  -0.086079  16.007500   0.031140  -0.069965   4.633070  22.161400   0.594309   2.923290   1.574840  -1.187260  -4.422710  -3.935620  -1.138530  -0.000000   0.000000   0.000000   6.754540  22.021300  -8.358150   0.147646   3.394670  -9.228080  -1.443450  -6.516130   1.783310  -0.000000   0.000000  -0.000000
 -4.756670  89.350700  -1.856830  -2.308930 -20.562200   1.944980   1.716390  12.131300   1.896470   3.119320  24.309400   3.534190   4.837900   1.636760  -0.138215   7.965830   3.247150   3.389010  -2.922590  -8.959610  -5.753820 -23.559300  25.073400 -78.494400  37.033300 -15.531900 -90.838100   0.176316  25.221600   8.584450  38.804300  33.925300 -47.762900 -34.850200  -0.011507  -0.003393 -12.699800  -0.002573  -0.011075  -9.961840   0.331104  -2.226050  -8.153790   0.059561   0.018714  -5.707660   0.040170   0.017176 -13.453800   0.473697  -2.200320 -13.455600   0.068959   0.033843  -8.961420   0.041763   0.029548 -12.694500   0.158838  -0.965057 -12.694300   0.005404   0.005120  -8.454400   0.003008   0.003988 -13.624500   0.220798  -0.951748 -20.438500   0.128559   0.083950 -13.612100   0.069005   0.075407   1.848410  -6.931280   8.039290  16.889200  12.632300  75.159400 -36.491900 -22.829000  64.462700  -2.112640  -4.508810  21.898000 -47.137600  30.822500  56.615400  17.680100   0.063371  -0.044873   3.840020   0.029919  -0.024751  11.669200   1.049040   5.025870   9.607720   0.032986  -0.017256   6.725400   0.021430  -0.014851  12.689700   1.183710   5.279570  12.784200   0.113748  -0.075716   8.514290   0.067006  -0.061595   8.682380   0.092694   0.591839   8.704440   0.042392  -0.017801   5.797160   0.026777  -0.014878  16.774100  -1.898140  -6.384650  25.340600   0.068158  -0.069244  16.876900   0.028916  -0.058002   4.599640  22.130500   0.581325   2.947960   1.605770  -1.254080  -4.431960  -3.904700  -1.189740   0.000000   0.000000   0.000000   6.719570  22.049800  -8.334700   0.174944   3.393280  -9.286330  -1.421660  -6.513300   1.699350  -0.000000   0.000000   0.000000
 -4.728670  89.338100  -1.879040  -2.217370 -20.586100   2.140020   1.678980  12.037000   1.969980   3.026590  24.123900   3.696450   4.442860   1.641090  -0.126986   7.315630   3.265460   3.860320  -3.182720  -8.534640  -5.782340 -25.038800  25.952200 -75.871700  36.950600 -14.555900 -89.589300   0.668570  25.693000  10.846500  39.031200  34.072400 -47.485300 -34.185900  -0.012393  -0.005931 -12.237400  -0.002555  -0.013356 -10.387400  -0.009749   0.048305  -8.491610   0.033633   0.012638  -5.944130   0.022503   0.011257 -13.688400   0.003216   0.052118 -13.676000   0.045553   0.026596  -9.108160   0.026985   0.022584 -12.647700  -0.134094   0.509460 -12.643500  -0.016140  -0.004576  -8.420550  -0.010233  -0.004513 -14.853000  -0.158665   0.503860 -22.271400   0.009981   0.009181 -14.832800   0.004763   0.007670   1.450810  -5.959090   7.565040  18.479400  13.124900  73.819000 -35.940600 -20.497200  62.097900  -1.796690  -6.178080  18.682700 -46.760100  31.699500  54.257000  19.401800   0.032925  -0.021191   4.700910   0.015653  -0.010903  12.499600   0.454929   2.002150  10.248300   0.008121  -0.011052   7.173840   0.004661  -0.008341  14.155900   0.244821   0.980878  14.185700   0.049755  -0.036280   9.447790   0.028773  -0.029296   9.417300  -0.444373  -2.840070   9.461970   0.016140  -0.013336   6.301680   0.009660  -0.010020  17.820100  -2.966940  -9.240300  27.117900   0.028892  -0.044468  18.060500   0.009192  -0.032946   4.553680  22.085700   0.554434   2.979400   1.644410  -1.344310  -4.443150  -3.868480  -1.235710  -0.000000   0.000000   0.000000   6.682490  22.085600  -8.334950   0.201182   3.373320  -9.365720  -1.396250  -6.511730   1.626290   0.000000   0.000000  -0.000000
